<mxfile host="Electron" modified="2023-12-31T16:32:58.841Z" agent="Mozilla/5.0 (Windows NT 10.0; Win64; x64) AppleWebKit/537.36 (KHTML, like Gecko) draw.io/22.1.11 Chrome/114.0.5735.289 Electron/25.9.8 Safari/537.36" etag="MmJ9xzJj1KtW5g47zRhA" version="22.1.11" type="device">
  <diagram name="Page-1" id="sMugCAy6DMpExwwVit-e">
    <mxGraphModel dx="880" dy="532" grid="1" gridSize="10" guides="1" tooltips="1" connect="1" arrows="1" fold="1" page="1" pageScale="1" pageWidth="850" pageHeight="1100" math="0" shadow="0">
      <root>
        <mxCell id="0" />
        <mxCell id="1" parent="0" />
        <mxCell id="oHAtqBaghz-ipEi3fsSN-10" value="" style="whiteSpace=wrap;html=1;aspect=fixed;" vertex="1" parent="1">
          <mxGeometry x="80" y="40" width="798" height="798" as="geometry" />
        </mxCell>
        <mxCell id="nWawkjTOt4jdWMMv3CbV-1" value="Actor" style="shape=umlActor;verticalLabelPosition=bottom;verticalAlign=top;html=1;outlineConnect=0;" parent="1" vertex="1">
          <mxGeometry x="120" y="100" width="30" height="60" as="geometry" />
        </mxCell>
        <mxCell id="nWawkjTOt4jdWMMv3CbV-2" value="Actor" style="shape=umlActor;verticalLabelPosition=bottom;verticalAlign=top;html=1;outlineConnect=0;" parent="1" vertex="1">
          <mxGeometry x="120.26" y="620" width="30" height="60" as="geometry" />
        </mxCell>
        <mxCell id="nWawkjTOt4jdWMMv3CbV-8" value="casual user&lt;br&gt;" style="text;html=1;strokeColor=none;fillColor=none;align=center;verticalAlign=middle;whiteSpace=wrap;rounded=0;" parent="1" vertex="1">
          <mxGeometry x="105" y="60" width="60" height="30" as="geometry" />
        </mxCell>
        <mxCell id="nWawkjTOt4jdWMMv3CbV-9" value="bookstore user&lt;br&gt;" style="text;html=1;strokeColor=none;fillColor=none;align=center;verticalAlign=middle;whiteSpace=wrap;rounded=0;" parent="1" vertex="1">
          <mxGeometry x="120" y="580" width="60" height="30" as="geometry" />
        </mxCell>
        <mxCell id="nWawkjTOt4jdWMMv3CbV-12" value="" style="ellipse;whiteSpace=wrap;html=1;" parent="1" vertex="1">
          <mxGeometry x="260" y="130" width="120" height="70" as="geometry" />
        </mxCell>
        <mxCell id="nWawkjTOt4jdWMMv3CbV-13" value="&amp;nbsp;Login" style="text;html=1;strokeColor=none;fillColor=none;align=center;verticalAlign=middle;whiteSpace=wrap;rounded=0;" parent="1" vertex="1">
          <mxGeometry x="290" y="150" width="60" height="30" as="geometry" />
        </mxCell>
        <mxCell id="nWawkjTOt4jdWMMv3CbV-15" value="" style="ellipse;whiteSpace=wrap;html=1;" parent="1" vertex="1">
          <mxGeometry x="259.48" y="210" width="120" height="80" as="geometry" />
        </mxCell>
        <mxCell id="nWawkjTOt4jdWMMv3CbV-17" value="" style="ellipse;whiteSpace=wrap;html=1;" parent="1" vertex="1">
          <mxGeometry x="260" y="470" width="120" height="80" as="geometry" />
        </mxCell>
        <mxCell id="nWawkjTOt4jdWMMv3CbV-18" value="view your library" style="text;html=1;strokeColor=none;fillColor=none;align=center;verticalAlign=middle;whiteSpace=wrap;rounded=0;" parent="1" vertex="1">
          <mxGeometry x="270" y="230" width="100" height="40" as="geometry" />
        </mxCell>
        <mxCell id="nWawkjTOt4jdWMMv3CbV-19" value="search for books&lt;br&gt;" style="text;html=1;strokeColor=none;fillColor=none;align=center;verticalAlign=middle;whiteSpace=wrap;rounded=0;" parent="1" vertex="1">
          <mxGeometry x="290" y="495" width="60" height="30" as="geometry" />
        </mxCell>
        <mxCell id="nWawkjTOt4jdWMMv3CbV-30" value="" style="ellipse;whiteSpace=wrap;html=1;" parent="1" vertex="1">
          <mxGeometry x="260" y="380" width="120" height="80" as="geometry" />
        </mxCell>
        <mxCell id="nWawkjTOt4jdWMMv3CbV-35" value="add to wishist&lt;br&gt;" style="text;html=1;strokeColor=none;fillColor=none;align=center;verticalAlign=middle;whiteSpace=wrap;rounded=0;" parent="1" vertex="1">
          <mxGeometry x="290" y="405" width="60" height="30" as="geometry" />
        </mxCell>
        <mxCell id="nWawkjTOt4jdWMMv3CbV-37" value="" style="endArrow=classic;html=1;rounded=0;entryX=0;entryY=0.5;entryDx=0;entryDy=0;exitX=1;exitY=0.3333333333333333;exitDx=0;exitDy=0;exitPerimeter=0;" parent="1" source="nWawkjTOt4jdWMMv3CbV-1" target="nWawkjTOt4jdWMMv3CbV-12" edge="1">
          <mxGeometry width="50" height="50" relative="1" as="geometry">
            <mxPoint x="410" y="300" as="sourcePoint" />
            <mxPoint x="460" y="250" as="targetPoint" />
          </mxGeometry>
        </mxCell>
        <mxCell id="nWawkjTOt4jdWMMv3CbV-40" value="" style="endArrow=classic;html=1;rounded=0;entryX=0;entryY=0.5;entryDx=0;entryDy=0;exitX=1;exitY=1;exitDx=0;exitDy=0;exitPerimeter=0;" parent="1" source="nWawkjTOt4jdWMMv3CbV-1" target="nWawkjTOt4jdWMMv3CbV-17" edge="1">
          <mxGeometry width="50" height="50" relative="1" as="geometry">
            <mxPoint x="110" y="240" as="sourcePoint" />
            <mxPoint x="160" y="190" as="targetPoint" />
          </mxGeometry>
        </mxCell>
        <mxCell id="nWawkjTOt4jdWMMv3CbV-41" value="" style="ellipse;whiteSpace=wrap;html=1;" parent="1" vertex="1">
          <mxGeometry x="259.74" y="290" width="120" height="80" as="geometry" />
        </mxCell>
        <mxCell id="nWawkjTOt4jdWMMv3CbV-54" value="" style="ellipse;whiteSpace=wrap;html=1;" parent="1" vertex="1">
          <mxGeometry x="270" y="630" width="120" height="80" as="geometry" />
        </mxCell>
        <mxCell id="nWawkjTOt4jdWMMv3CbV-55" value="" style="ellipse;whiteSpace=wrap;html=1;" parent="1" vertex="1">
          <mxGeometry x="270.26" y="710" width="120" height="80" as="geometry" />
        </mxCell>
        <mxCell id="nWawkjTOt4jdWMMv3CbV-56" value="Login&lt;br&gt;" style="text;html=1;strokeColor=none;fillColor=none;align=center;verticalAlign=middle;whiteSpace=wrap;rounded=0;" parent="1" vertex="1">
          <mxGeometry x="300" y="655" width="60" height="30" as="geometry" />
        </mxCell>
        <mxCell id="nWawkjTOt4jdWMMv3CbV-57" value="Sell books&lt;br&gt;" style="text;html=1;strokeColor=none;fillColor=none;align=center;verticalAlign=middle;whiteSpace=wrap;rounded=0;" parent="1" vertex="1">
          <mxGeometry x="300.26" y="735" width="60" height="30" as="geometry" />
        </mxCell>
        <mxCell id="nWawkjTOt4jdWMMv3CbV-58" value="" style="endArrow=classic;html=1;rounded=0;exitX=0.5;exitY=0.5;exitDx=0;exitDy=0;exitPerimeter=0;entryX=0;entryY=0.5;entryDx=0;entryDy=0;" parent="1" source="nWawkjTOt4jdWMMv3CbV-2" target="nWawkjTOt4jdWMMv3CbV-54" edge="1">
          <mxGeometry width="50" height="50" relative="1" as="geometry">
            <mxPoint x="410.26" y="560" as="sourcePoint" />
            <mxPoint x="460.26" y="510" as="targetPoint" />
          </mxGeometry>
        </mxCell>
        <mxCell id="nWawkjTOt4jdWMMv3CbV-59" value="" style="endArrow=classic;html=1;rounded=0;entryX=0;entryY=0.5;entryDx=0;entryDy=0;exitX=0.5;exitY=0.5;exitDx=0;exitDy=0;exitPerimeter=0;" parent="1" source="nWawkjTOt4jdWMMv3CbV-2" target="nWawkjTOt4jdWMMv3CbV-55" edge="1">
          <mxGeometry width="50" height="50" relative="1" as="geometry">
            <mxPoint x="140.26" y="770" as="sourcePoint" />
            <mxPoint x="190.26" y="720" as="targetPoint" />
          </mxGeometry>
        </mxCell>
        <mxCell id="nWawkjTOt4jdWMMv3CbV-61" value="add to&lt;br&gt;&amp;nbsp;favourites" style="text;html=1;strokeColor=none;fillColor=none;align=center;verticalAlign=middle;whiteSpace=wrap;rounded=0;" parent="1" vertex="1">
          <mxGeometry x="289.48" y="320" width="60" height="30" as="geometry" />
        </mxCell>
        <mxCell id="bn_Jjg7FVlpdXqxdNebs-1" value="" style="ellipse;whiteSpace=wrap;html=1;" parent="1" vertex="1">
          <mxGeometry x="260" y="60" width="120" height="65" as="geometry" />
        </mxCell>
        <mxCell id="bn_Jjg7FVlpdXqxdNebs-2" value="registeration" style="text;html=1;strokeColor=none;fillColor=none;align=center;verticalAlign=middle;whiteSpace=wrap;rounded=0;" parent="1" vertex="1">
          <mxGeometry x="290.26" y="78" width="60" height="30" as="geometry" />
        </mxCell>
        <mxCell id="bn_Jjg7FVlpdXqxdNebs-4" value="" style="ellipse;whiteSpace=wrap;html=1;" parent="1" vertex="1">
          <mxGeometry x="260.26" y="550" width="120" height="80" as="geometry" />
        </mxCell>
        <mxCell id="bn_Jjg7FVlpdXqxdNebs-5" value="" style="endArrow=classic;html=1;rounded=0;entryX=0;entryY=0.5;entryDx=0;entryDy=0;" parent="1" source="nWawkjTOt4jdWMMv3CbV-2" target="bn_Jjg7FVlpdXqxdNebs-4" edge="1">
          <mxGeometry width="50" height="50" relative="1" as="geometry">
            <mxPoint x="130.26" y="750" as="sourcePoint" />
            <mxPoint x="180.26" y="700" as="targetPoint" />
            <Array as="points">
              <mxPoint x="210" y="620" />
            </Array>
          </mxGeometry>
        </mxCell>
        <mxCell id="bn_Jjg7FVlpdXqxdNebs-6" value="registeration" style="text;html=1;strokeColor=none;fillColor=none;align=center;verticalAlign=middle;whiteSpace=wrap;rounded=0;" parent="1" vertex="1">
          <mxGeometry x="290.26" y="575" width="60" height="30" as="geometry" />
        </mxCell>
        <mxCell id="oHAtqBaghz-ipEi3fsSN-7" value="" style="endArrow=classic;html=1;rounded=0;exitX=1;exitY=0.3333333333333333;exitDx=0;exitDy=0;exitPerimeter=0;entryX=0;entryY=0.5;entryDx=0;entryDy=0;" edge="1" parent="1" source="nWawkjTOt4jdWMMv3CbV-1" target="bn_Jjg7FVlpdXqxdNebs-1">
          <mxGeometry width="50" height="50" relative="1" as="geometry">
            <mxPoint x="190" y="110" as="sourcePoint" />
            <mxPoint x="240" y="60" as="targetPoint" />
          </mxGeometry>
        </mxCell>
        <mxCell id="oHAtqBaghz-ipEi3fsSN-8" value="" style="endArrow=classic;html=1;rounded=0;entryX=0.035;entryY=0.288;entryDx=0;entryDy=0;entryPerimeter=0;" edge="1" parent="1" source="nWawkjTOt4jdWMMv3CbV-1" target="nWawkjTOt4jdWMMv3CbV-41">
          <mxGeometry width="50" height="50" relative="1" as="geometry">
            <mxPoint x="160" y="150" as="sourcePoint" />
            <mxPoint x="160" y="230" as="targetPoint" />
          </mxGeometry>
        </mxCell>
        <mxCell id="oHAtqBaghz-ipEi3fsSN-13" value="" style="endArrow=classic;html=1;rounded=0;entryX=0.058;entryY=0.225;entryDx=0;entryDy=0;entryPerimeter=0;" edge="1" parent="1" source="nWawkjTOt4jdWMMv3CbV-1" target="nWawkjTOt4jdWMMv3CbV-30">
          <mxGeometry width="50" height="50" relative="1" as="geometry">
            <mxPoint x="150" y="380" as="sourcePoint" />
            <mxPoint x="200" y="330" as="targetPoint" />
          </mxGeometry>
        </mxCell>
        <mxCell id="oHAtqBaghz-ipEi3fsSN-14" value="" style="endArrow=classic;html=1;rounded=0;entryX=0;entryY=0;entryDx=0;entryDy=0;" edge="1" parent="1" source="nWawkjTOt4jdWMMv3CbV-1" target="nWawkjTOt4jdWMMv3CbV-18">
          <mxGeometry width="50" height="50" relative="1" as="geometry">
            <mxPoint x="230" y="250" as="sourcePoint" />
            <mxPoint x="280" y="200" as="targetPoint" />
          </mxGeometry>
        </mxCell>
      </root>
    </mxGraphModel>
  </diagram>
</mxfile>
